<?xml version="1.0" encoding="UTF-8"?>
<svg height="16px" viewBox="0 0 16 16" width="16px" xmlns="http://www.w3.org/2000/svg">
    <g fill="#241f31">
        <path d="m 1.023438 0.0898438 c -0.542969 -0.0585938 -1.0156255 0.3632812 -1.0156255 0.9101562 v 12.117188 c -0.00390625 0.773437 0.9531255 1.140624 1.4687495 0.5625 l 1.675782 -1.871094 c 0.160156 -0.179688 0.332031 -0.347656 0.515625 -0.5 l 1.714843 3.914062 c 0.285157 0.65625 1.050782 0.957032 1.707032 0.667969 c 0.65625 -0.285156 0.957031 -1.050781 0.667968 -1.707031 l -1.726562 -3.949219 c 0.261719 -0.046875 0.53125 -0.070313 0.800781 -0.074219 h 2.332031 c 0.816407 0 1.222657 -0.984375 0.648438 -1.5625 l -8.246094 -8.242187 c -0.144531 -0.148438 -0.339844 -0.242188 -0.542968 -0.2656252 z m 0 0"/>
        <path d="m 13 9.988281 c 0.550781 0 1 0.449219 1 1 v 4.011719 c 0 0.550781 -0.449219 1 -1 1 s -1 -0.449219 -1 -1 v -4.011719 c 0 -0.550781 0.449219 -1 1 -1 z m 0 0"/>
        <path d="m 16 13 c 0 0.550781 -0.449219 1 -1 1 h -4 c -0.550781 0 -1 -0.449219 -1 -1 s 0.449219 -1 1 -1 h 4 c 0.550781 0 1 0.449219 1 1 z m 0 0"/>
    </g>
</svg>
