<?xml version="1.0" encoding="UTF-8"?>
<svg height="128px" viewBox="0 0 128 128" width="128px" xmlns="http://www.w3.org/2000/svg" xmlns:xlink="http://www.w3.org/1999/xlink">
    <linearGradient id="a" gradientUnits="userSpaceOnUse" x1="14" x2="115.993774" y1="114" y2="114">
        <stop offset="0" stop-color="#1c71d8"/>
        <stop offset="0.031845" stop-color="#7fb0ee"/>
        <stop offset="0.117654" stop-color="#1c71d8"/>
        <stop offset="0.90256" stop-color="#1c71d8"/>
        <stop offset="0.953927" stop-color="#74aced"/>
        <stop offset="1" stop-color="#1c71d8"/>
    </linearGradient>
    <radialGradient id="b" cx="-303.993286" cy="236.080002" gradientTransform="matrix(-0.807692 0.846154 -0.695539 -0.663914 -17.33017 477.961792)" gradientUnits="userSpaceOnUse" r="52">
        <stop offset="0" stop-color="#ffffff"/>
        <stop offset="1" stop-color="#62a0ea"/>
    </radialGradient>
    <path d="m 19.992188 16 h 88 c 4.417968 0 8 3.582031 8 8 v 84 c 0 4.417969 -3.582032 8 -8 8 h -88 c -4.417969 0 -8 -3.582031 -8 -8 v -84 c 0 -4.417969 3.582031 -8 8 -8 z m 0 0" fill="url(#a)"/>
    <path d="m 19.992188 12 h 88 c 4.417968 0 8 3.582031 8 8 v 84 c 0 4.417969 -3.582032 8 -8 8 h -88 c -4.417969 0 -8 -3.582031 -8 -8 v -84 c 0 -4.417969 3.582031 -8 8 -8 z m 0 0" fill="url(#b)"/>
    <path d="m 26.714844 22.023438 h 74.5625 c 2.589844 0 4.691406 2.050781 4.691406 4.578124 v 70.796876 c 0 2.527343 -2.101562 4.578124 -4.691406 4.578124 h -74.5625 c -2.589844 0 -4.691406 -2.050781 -4.691406 -4.578124 v -70.796876 c 0 -2.527343 2.101562 -4.578124 4.691406 -4.578124 z m 0 0" fill="none" stroke="#ffffff" stroke-dasharray="4.03052 4.03052" stroke-opacity="0.384314" stroke-width="4.03052"/>
    <path d="m 53.75 35.324219 c -3.125 -0.351563 -5.859375 2.09375 -5.863281 5.238281 v 69.871094 c 0 4.464844 5.511719 6.570312 8.488281 3.246094 l 9.65625 -10.796876 c 0.921875 -1.027343 1.921875 -1.988281 2.984375 -2.871093 l 9.867187 22.5625 c 1.660157 3.785156 6.070313 5.507812 9.851563 3.851562 c 3.785156 -1.65625 5.511719 -6.066406 3.855469 -9.851562 l -9.964844 -22.769531 c 1.527344 -0.265626 3.070312 -0.40625 4.621094 -0.421876 h 13.453125 c 4.699219 -0.003906 7.054687 -5.6875 3.730469 -9.007812 l -47.542969 -47.539062 c -0.84375 -0.84375 -1.949219 -1.375 -3.136719 -1.511719 z m 0 0" fill-opacity="0.121569"/>
    <path d="m 53.75 32.019531 c -3.125 -0.351562 -5.859375 2.09375 -5.863281 5.238281 v 69.871094 c 0 4.464844 5.511719 6.570313 8.488281 3.246094 l 9.65625 -10.796875 c 0.921875 -1.03125 1.921875 -1.988281 2.984375 -2.871094 l 9.867187 22.5625 c 1.660157 3.785157 6.070313 5.507813 9.851563 3.851563 c 3.785156 -1.65625 5.511719 -6.066406 3.855469 -9.851563 l -9.964844 -22.769531 c 1.527344 -0.265625 3.070312 -0.40625 4.621094 -0.421875 h 13.453125 c 4.699219 -0.003906 7.054687 -5.6875 3.730469 -9.007813 l -47.542969 -47.539062 c -0.84375 -0.84375 -1.949219 -1.375 -3.136719 -1.511719 z m 0 0" fill="#ffffff"/>
    <path d="m 50.15625 32.972656 c -1.40625 0.976563 -2.253906 2.574219 -2.269531 4.285156 v 69.871094 c 0 4.464844 5.507812 6.570313 8.484375 3.246094 l 9.660156 -10.796875 c 0.921875 -1.03125 1.921875 -1.988281 2.984375 -2.871094 l 9.867187 22.5625 c 1.574219 3.488281 5.527344 5.230469 9.164063 4.03125 c -1.136719 -0.246093 -2.339844 -0.621093 -3.109375 -2.464843 c 0 0 -23.960938 -57.058594 -33.976562 -80.695313 c -0.710938 -1.679687 -2.136719 -4.894531 -0.804688 -7.167969 z m 0 0" fill="#f6f5f4"/>
    <path d="m 108.855469 127.300781 c -10.554688 0 -19.113281 -8.558593 -19.113281 -19.113281 c 0 -10.558594 8.558593 -19.117188 19.113281 -19.117188 c 10.558593 0 19.117187 8.558594 19.117187 19.117188 c 0 10.554688 -8.558594 19.113281 -19.117187 19.113281 z m 0 0" fill-opacity="0.121569"/>
    <path d="m 108.855469 124.050781 c -10.554688 0 -19.113281 -8.558593 -19.113281 -19.113281 c 0 -10.558594 8.558593 -19.117188 19.113281 -19.117188 c 10.558593 0 19.117187 8.558594 19.117187 19.117188 c 0 10.554688 -8.558594 19.113281 -19.117187 19.113281 z m 0 0" fill="#ffffff"/>
    <g fill="#1a5fb4">
        <path d="m 108.863281 92.195312 c 1.753907 0 3.179688 1.425782 3.179688 3.183594 v 19.117188 c 0 1.757812 -1.425781 3.183594 -3.179688 3.183594 c -1.757812 0 -3.183593 -1.425782 -3.183593 -3.183594 v -19.117188 c 0 -1.757812 1.425781 -3.183594 3.183593 -3.183594 z m 0 0"/>
        <path d="m 121.601562 104.9375 c 0 1.757812 -1.425781 3.183594 -3.1875 3.183594 h -19.113281 c -1.761719 0 -3.1875 -1.425782 -3.1875 -3.183594 c 0 -1.761719 1.425781 -3.1875 3.1875 -3.1875 h 19.113281 c 1.761719 0 3.1875 1.425781 3.1875 3.1875 z m 0 0"/>
    </g>
</svg>
